<svg id="SvgjsSvg1051" width="288" height="288" xmlns="http://www.w3.org/2000/svg" version="1.1" xmlns:xlink="http://www.w3.org/1999/xlink" xmlns:svgjs="http://svgjs.com/svgjs"><defs id="SvgjsDefs1052"></defs><g id="SvgjsG1053"><svg xmlns="http://www.w3.org/2000/svg" viewBox="0 0 512 512" width="288" height="288"><!--! Font Awesome Pro 6.1.1 by @fontawesome - https://fontawesome.com License - https://fontawesome.com/license (Commercial License) Copyright 2022 Fonticons, Inc.--><path d="M32 192h320c52.94 0 96-43.06 96-96s-43.06-96-96-96h-32c-17.69 0-32 14.31-32 32s14.31 32 32 32h32c17.66 0 32 14.34 32 32s-14.34 32-32 32H32C14.31 128 0 142.3 0 160S14.31 192 32 192zM160 320H32c-17.69 0-32 14.31-32 32s14.31 32 32 32h128c17.66 0 32 14.34 32 32s-14.34 32-32 32H128c-17.69 0-32 14.31-32 32s14.31 32 32 32h32c52.94 0 96-43.06 96-96S212.9 320 160 320zM416 224H32C14.31 224 0 238.3 0 256s14.31 32 32 32h384c17.66 0 32 14.34 32 32s-14.34 32-32 32h-32c-17.69 0-32 14.31-32 32s14.31 32 32 32h32c52.94 0 96-43.06 96-96S468.9 224 416 224z" fill="#888888" class="color000 svgShape"></path></svg></g></svg>